<svg width="24" height="24" viewBox="0 0 24 24" fill="none" xmlns="http://www.w3.org/2000/svg">
<path d="M8.19332 9.00625C8.19332 9.00625 7.47825 9.48617 7.22461 11.8177C8.56183 13.5493 10.2237 13.2662 10.9554 13.0246C11.0219 13.0021 11.1058 12.8937 11.1102 12.8246C11.2073 11.1598 9.83266 8.94035 9.33746 8.19946C8.93911 8.35819 8.55139 8.61504 8.19332 9.00625Z" fill="#77838F"/>
<path d="M15.2009 4.68261L15.4392 5.41704C15.5961 5.90205 15.6208 6.315 15.5313 6.66026C18.3006 7.98525 20.2227 10.8062 20.2227 14.0748C20.2227 18.6095 16.5337 22.2983 11.9994 22.2983C11.951 22.2983 11.9035 22.2915 11.8557 22.2906L11.8425 21.984C11.8364 21.847 11.9357 21.6966 12.064 21.6488L13.6551 21.0518C13.6551 21.0518 14.4013 21.0935 14.7118 20.5334C14.8689 20.251 15.0151 20.0537 15.1222 19.9265C15.21 19.8218 15.2089 19.6726 15.1102 19.577C14.7854 19.2624 14.1316 18.5735 14.0698 18.047C13.9867 17.3422 12.9925 16.7617 11.7071 16.6791C11.7071 16.6791 11.0247 16.1544 10.9788 15.2489C10.9714 15.1117 10.8689 14.9753 10.7356 15.0084C10.3921 15.0926 9.80914 15.5338 9.78017 17.5478C9.78017 17.5478 7.95513 18.4727 7.78505 21.1232C7.63976 21.0362 7.49423 20.9504 7.35487 20.8543C7.4212 20.0487 7.62481 19.4069 7.86332 18.9225C8.33673 17.96 9.00134 17.4249 9.34034 17.199C9.41337 15.211 10.0585 14.6302 10.5971 14.4972C10.7626 14.4564 10.9362 14.4918 11.0738 14.5946C11.2304 14.7112 11.3301 14.9032 11.3408 15.1096C11.3684 15.6438 11.6842 16.0188 11.8341 16.1679C12.0768 16.1903 12.3087 16.2291 12.5266 16.2821L12.547 16.0945L12.7134 14.4751C12.7417 14.2019 12.9877 13.9711 13.2595 13.9324C14.2919 13.782 16.5925 13.1704 16.7422 10.6849C16.7587 10.4104 16.5277 10.1347 16.2605 10.0697L14.0705 9.53501C14.0705 9.53501 14.008 9.00642 13.3865 8.78913C12.9336 8.63025 11.3733 7.73409 9.83826 8.05023C10.4186 8.93368 11.7097 11.1114 11.6077 12.8532C11.5924 13.1273 11.3745 13.4102 11.113 13.4964C10.8616 13.5798 10.4099 13.6962 9.86102 13.6962C9.06588 13.6962 8.06737 13.4518 7.16761 12.5115C7.14994 12.81 7.13985 13.1334 7.13815 13.4829C7.12796 15.2863 4.83731 16.9961 4.83731 16.9961L4.56373 17.5625C4.06469 16.5017 3.77718 15.3229 3.77718 14.0748C3.77718 10.7227 5.7956 7.8373 8.6786 6.55822C8.61871 6.23324 8.64768 5.85639 8.79011 5.4167L9.05802 4.59473C5.01671 5.8511 2.07471 9.62546 2.07471 14.0749C2.07471 19.5473 6.52726 24 11.9999 24C17.4725 24 21.9249 19.5473 21.9249 14.0749C21.9244 9.72218 19.1071 6.01779 15.2009 4.68261ZM13.1257 18.1704C13.2802 18.1704 13.4057 18.2952 13.4057 18.4503C13.4057 18.6052 13.2802 18.7301 13.1257 18.7301C12.9713 18.7301 12.846 18.6053 12.846 18.4503C12.846 18.2952 12.9713 18.1704 13.1257 18.1704ZM12.846 10.0876C13.0009 10.0876 13.1257 10.2126 13.1257 10.3674C13.1257 10.5222 13.001 10.647 12.846 10.647C12.6909 10.647 12.5659 10.5223 12.5659 10.3674C12.5661 10.2126 12.6916 10.0876 12.846 10.0876Z" fill="#77838F"/>
<ellipse cx="12.0002" cy="13.84" rx="8.8" ry="8.88" stroke="#77838F" stroke-width="2"/>
</svg>
