<svg width="24" height="24" viewBox="0 0 24 24" fill="none" xmlns="http://www.w3.org/2000/svg">
<path d="M19.8011 4H3.35393C3.08395 4 2.8312 4.06637 2.60254 4.17577L11.5385 13.1118L13.5414 11.1869C13.5414 11.1869 13.5416 11.1868 13.5416 11.1867C13.5416 11.1866 13.5418 11.1865 13.5418 11.1865L20.5528 4.17593C20.3241 4.06645 20.0712 4 19.8011 4Z" fill="#77838F"/>
<path d="M21.3794 5.00269L14.7817 11.6L21.3792 18.1975C21.4886 17.9688 21.555 17.7161 21.555 17.4461V5.7538C21.555 5.48398 21.4888 5.23127 21.3794 5.00269Z" fill="#77838F"/>
<path d="M1.77587 5.00244C1.66647 5.2311 1.6001 5.48385 1.6001 5.75383V17.4461C1.6001 17.716 1.66639 17.9687 1.77572 18.1973L8.37341 11.6L1.77587 5.00244Z" fill="#77838F"/>
<path d="M13.9548 12.4268L11.9517 14.3519C11.8375 14.4661 11.6879 14.5232 11.5384 14.5232C11.3888 14.5232 11.2392 14.4661 11.125 14.3519L9.19987 12.4268L2.60205 19.0241C2.83075 19.1336 3.08366 19.2001 3.35371 19.2001H19.8009C20.0709 19.2001 20.3236 19.1337 20.5523 19.0243L13.9548 12.4268Z" fill="#77838F"/>
</svg>
