<svg width="17" height="17" viewBox="0 0 17 17" fill="none" xmlns="http://www.w3.org/2000/svg">
<path fill-rule="evenodd" clip-rule="evenodd" d="M0 5C0 6.65685 1.34315 8 3 8H5.5C5.77614 8 6 7.77614 6 7.5C6 7.22386 5.77614 7 5.5 7H4.12798C2.92962 7 2.03985 5.86482 2.67911 4.85121C3.90708 2.90414 6.08096 1.62475 8.5 1.624C11.3926 1.624 13.9805 3.46569 14.9578 6.15906C15.052 6.41864 15.3264 6.57438 15.5922 6.49958C15.8583 6.42471 16.0146 6.14736 15.9228 5.88671C14.8224 2.76483 11.8385 0.625 8.5 0.625C6.28293 0.625 4.24651 1.56349 2.8021 3.07629C2.36736 3.53162 1 3.18043 1 2.55089V2.5C1 2.22386 0.776142 2 0.5 2C0.223858 2 0 2.22386 0 2.5V5ZM11.5 10C11.2239 10 11 9.77614 11 9.5C11 9.22386 11.2239 9 11.5 9H14C15.6569 9 17 10.3431 17 12V14.5C17 14.7761 16.7761 15 16.5 15C16.2239 15 16 14.7761 16 14.5V14.4452C16 13.8119 14.6358 13.4618 14.1989 13.9201C12.7534 15.4367 10.7177 16.374 8.5 16.374C5.16056 16.374 2.17655 14.2341 1.07707 11.1122C0.985287 10.8516 1.14166 10.5743 1.40764 10.4995C1.67351 10.4246 1.94799 10.5805 2.04213 10.8401C3.01851 13.5334 5.60556 15.375 8.5 15.375C10.9213 15.375 13.0935 14.0963 14.3209 12.1491C14.96 11.1353 14.0701 10 12.8718 10H11.5Z" fill="#43BE8D"/>
</svg>
